<svg xmlns="http://www.w3.org/2000/svg" viewBox="0 0 64 63.72">
  <path d="M57.62,7.35l-.44-.29h0L57,6.91l0,0c-.35-.22-.71-.46-1.08-.68-.56.91-1.09,1.81-1.64,2.71-.08-.09-.09-.13-.08-.16.28-.92.55-1.86.86-2.78.06-.2,0-.28-.16-.36s-.24-.15-.37-.22c-1.33-.66-2.66-1.33-4-2a19.06,19.06,0,0,0-2.11-.86c-1-.36-2-.67-3.06-1-.75-.23-1.52-.4-2.32-.6-.21,1.38-.43,2.71-.64,4a.5.5,0,0,0-.13,0V4.69l-.1-3.14c0-.58,0-.68-.39-.76A4,4,0,0,0,41.27.7a.18.18,0,0,0-.12,0L40.37.54C39.93.47,39.47.4,39,.36,38.28.29,37.54.21,36.8.19c-1.15,0-2.3-.07-3.43,0s-2.09.18-3.13.28c-.06,0-.16.18-.15.26.28,1.66.58,3.3.89,5,.25,1.36.52,2.73.78,4.09a1.31,1.31,0,0,1,0,.28h-.09c-.78-3.14-1.53-6.29-2.3-9.43-.05,0-.09,0-.12,0-1.49.33-3,.61-4.48,1a30.14,30.14,0,0,0-5.28,2.11c-.26.14-.2.24-.08.45s.31.56.48.85c1.18,2.12,2.37,4.25,3.55,6.39.16.29.3.57.45.86l-.1.05C22,9.66,20.27,7,18.47,4.19L14.09,7.06c.7,1.19,1.36,2.29,2,3.39l-.12.08L13.73,7.44l-.25.18a35.15,35.15,0,0,0-6,6.29c-.19.25-.13.36.08.57,1.26,1.17,2.5,2.36,3.74,3.54l.21.23-.08.08L6.94,14.66A37.67,37.67,0,0,0,2,24.84Q4.25,26,6.46,27.11s0,.07,0,.11c-.31-.09-.63-.17-1-.28-1.18-.39-2.36-.78-3.55-1.19-.21-.07-.27,0-.32.2-.09.37-.19.75-.29,1.13-.2.85-.44,1.7-.58,2.56-.23,1.5-.4,3-.59,4.52-.06.45-.05.44.39.56s.72.23,1.09.35c0,0,0,.07,0,.11-.45.24-.89.47-1.33.73-.11.07-.26.2-.26.32a36.75,36.75,0,0,0,.12,5.24l.8-.11c-.09.17-.15.24-.18.32-.13.31-.4.63-.38,1h0a22.45,22.45,0,0,0,2.3,8.85h0c.14.3.29.62.45.91A13,13,0,0,1,4.89,56.9a9.73,9.73,0,0,1,0,2.75c-.06.4-.16.78-.25,1.25a11,11,0,0,0,2.89-3.71,13.2,13.2,0,0,0,1.12-3.61,13.29,13.29,0,0,0,0-4.08,9.73,9.73,0,0,1,0-3.57,7.06,7.06,0,0,1,1.74-3.31,1.74,1.74,0,0,1,.22-.18h0l0,0a1,1,0,0,0,.24-.22h0c.11-.09.27-.23.47-.38h0l.23-.17.16-.11c0-.59-.07-1.19-.07-1.78a26.39,26.39,0,0,1,6-16.7,26.78,26.78,0,0,1,15.47-9.28,24.26,24.26,0,0,1,4.74-.47,27.22,27.22,0,0,1,13.9,4l.05,0,0,0a4,4,0,0,1,1,.95A18.3,18.3,0,0,1,55,15.45a8.24,8.24,0,0,1,1.64-1.16,16.3,16.3,0,0,1,7-1.75H64A47.81,47.81,0,0,0,57.62,7.35Z" fill="#3d3935" />
  <path d="M49.75,56.6A1.16,1.16,0,0,0,48,56.19c-4.09,2.26-7.85,3.57-13.59,2.42a18.94,18.94,0,0,1-15-18.87,18.93,18.93,0,0,1,15-18.86C40.19,19.73,44,21,48,23.3a1.16,1.16,0,0,0,1.71-.41L51,21.07a1.28,1.28,0,0,0-.43-1.77,23.81,23.81,0,0,0-17-3.25A24.14,24.14,0,0,0,14,39.74h0A23.85,23.85,0,0,0,50.53,60.19,1.28,1.28,0,0,0,51,58.42Z" fill="#16a085" />
  <path d="M46.61,36.74a8.53,8.53,0,0,1,6.09.34A7.55,7.55,0,0,1,55,38.9,5.86,5.86,0,0,1,56.28,42v0c.1,1.1.19,2.19.31,3.29a.46.46,0,0,0,.26.29c.95.41,1.9.79,2.85,1.18l1.58.58c0-.07,0-.09,0-.11-.58-1.48-1.19-3-1.72-4.48-.38-1.12-.62-2.29-1-3.41-.5-1.63-1-3.27-1.61-4.87-.49-1.25-1.13-2.44-1.71-3.65a18.16,18.16,0,0,0-3.49-4.75c-.33-.33-.69-.63-1-.93a3.33,3.33,0,0,1-2,.65A3.89,3.89,0,0,1,47,25.37l-.06,0a16.63,16.63,0,0,0-8.43-2.55,17.8,17.8,0,0,0-3.57.38A16.64,16.64,0,0,0,21.8,39.73v0A16.65,16.65,0,0,0,34.91,56.32a18.56,18.56,0,0,0,3.57.38,16.54,16.54,0,0,0,8.43-2.56l.06,0a4,4,0,0,1,1.81-.47,3.44,3.44,0,0,1,2.91,1.67L52.84,57a3.24,3.24,0,0,1,.64,2.43,3.83,3.83,0,0,1-1.65,2.67l0,0-.05,0c-.69.42-1.4.8-2.12,1.16a17.38,17.38,0,0,0,2,.28,29.39,29.39,0,0,0,4.05.18h0A12.67,12.67,0,0,0,61,63a.65.65,0,0,0,.16-.09L55.76,48.8h0c-.61-1.64-1.23-3.27-1.84-4.9-.91.13-1.78.29-2.66.37a7.59,7.59,0,0,1-3.58-.63,12.29,12.29,0,0,1-4-2.65c-.75-.71-1.43-1.48-2.17-2.25a4.52,4.52,0,0,1,.46-.25A30.56,30.56,0,0,1,46.61,36.74Z" fill="#3d3935" />
</svg>